<svg width="170" height="110" viewBox="0 0 170 110" fill="none" xmlns="http://www.w3.org/2000/svg">
<g clip-path="url(#clip0_206_222)">
<path d="M84.2388 109.548C83.6808 109.548 83.1266 109.393 82.6374 109.096L77.54 105.911C76.7787 105.462 77.1502 105.303 77.4013 105.211C78.4164 104.836 78.6224 104.752 79.7059 104.102C79.8198 104.034 79.9689 104.058 80.0855 104.13L84.0015 106.583C84.1429 106.664 84.3436 106.664 84.4747 106.583L99.7436 97.2813C99.885 97.1966 99.9767 97.0232 99.9767 96.8457V78.2507C99.9767 78.0652 99.885 77.8998 99.7405 77.807L84.4777 68.5135C84.3363 68.4248 84.149 68.4248 84.0076 68.5135L68.7478 77.807C68.5999 77.8957 68.5059 78.0692 68.5059 78.2467V96.8417C68.5059 97.0191 68.5976 97.1885 68.7429 97.2733L72.9242 99.8225C75.1944 101.02 76.5818 99.6087 76.5818 98.1889V79.8359C76.5818 79.5737 76.7767 79.372 77.0252 79.372H78.9591C79.1999 79.372 79.3986 79.5737 79.3986 79.8359V98.197C79.3986 101.392 77.7475 103.227 74.8772 103.227C73.9943 103.227 73.2987 103.227 71.3571 102.218L67.3517 99.7822C66.3618 99.1771 65.7502 98.0477 65.7502 96.8417V78.2467C65.7502 77.0366 66.3618 75.9072 67.3517 75.3102L82.6359 66.0046C83.6029 65.4278 84.887 65.4278 85.8464 66.0046L101.111 75.3142C102.098 75.9152 102.713 77.0406 102.713 78.2507V96.8457C102.713 98.0517 102.098 99.1771 101.111 99.7822L85.8464 109.088C85.3572 109.386 84.803 109.54 84.2373 109.54" fill="#689F63"/>
<path d="M88.9552 96.7348C82.2743 96.7348 80.8735 93.4982 80.8735 90.7836C80.8735 90.5254 81.0707 90.3197 81.3157 90.3197H83.2879C83.5058 90.3197 83.6892 90.4871 83.7236 90.7142C84.0217 92.8351 84.9084 93.9048 88.9483 93.9048C92.1664 93.9048 93.5347 93.1376 93.5347 91.3366C93.5347 90.2999 93.1449 89.5295 88.1457 89.0132C83.9644 88.5776 81.3807 87.6055 81.3807 84.076C81.3807 80.8249 83.9797 78.8888 88.3329 78.8888C93.2213 78.8888 95.6445 80.6797 95.9502 84.5278C95.9617 84.6609 95.9158 84.79 95.8317 84.8868C95.7476 84.9796 95.6292 85.036 95.5069 85.036H93.5232C93.3168 85.036 93.1372 84.8828 93.0952 84.673C92.6174 82.4424 91.4632 81.7285 88.3253 81.7285C84.8129 81.7285 84.4039 83.0192 84.4039 83.9873C84.4039 85.1611 84.8855 85.5039 89.6248 86.1655C94.3182 86.8229 96.5464 87.7507 96.5464 91.2317C96.5464 94.7409 93.7717 96.7537 88.933 96.7537M107.531 77.0333H108.043C108.463 77.0333 108.544 76.7227 108.544 76.5412C108.544 76.0653 108.234 76.0653 108.062 76.0653H107.535L107.531 77.0333ZM106.908 75.5086H108.043C108.433 75.5086 109.197 75.5086 109.197 76.4283C109.197 77.0696 108.807 77.2027 108.574 77.2834C109.029 77.3157 109.06 77.6303 109.121 78.074C109.151 78.3523 109.201 78.8323 109.293 78.9937H108.593C108.574 78.8323 108.467 77.9449 108.467 77.8965C108.421 77.6989 108.356 77.6021 108.123 77.6021H107.546V78.9977H106.908V75.5086ZM105.543 77.2431C105.543 78.6871 106.648 79.8569 108.005 79.8569C109.373 79.8569 110.478 78.6629 110.478 77.2431C110.478 75.795 109.358 74.6454 108.001 74.6454C106.663 74.6454 105.54 75.7789 105.54 77.2391M110.952 77.2512C110.952 78.9614 109.625 80.357 108.009 80.357C106.403 80.357 105.066 78.9775 105.066 77.2512C105.066 75.4925 106.434 74.1453 108.009 74.1453C109.595 74.1453 110.948 75.4965 110.948 77.2512" fill="#689F63"/>
<path fill-rule="evenodd" clip-rule="evenodd" d="M36.9565 36.7895C36.9565 36.0473 36.5858 35.3656 35.9788 34.9966L19.7903 25.1666C19.5171 24.9972 19.2109 24.9085 18.9006 24.8964H18.7332C18.4228 24.9085 18.1167 24.9972 17.8388 25.1666L1.65107 34.9966C1.04796 35.3676 0.671875 36.0493 0.671875 36.7915L0.70742 63.2682C0.70742 63.6353 0.887054 63.9781 1.19281 64.1596C1.49093 64.3533 1.86549 64.3533 2.16361 64.1596L11.7874 58.3432C12.3951 57.9616 12.7659 57.2872 12.7659 56.5522V44.1831C12.7659 43.445 13.1366 42.7633 13.7424 42.3962L17.8396 39.9059C18.1438 39.7203 18.4779 39.6284 18.818 39.6284C19.1528 39.6284 19.4945 39.7195 19.7903 39.9055L23.8856 42.395C24.4918 42.7621 24.864 43.4438 24.864 44.1819V56.5502C24.864 57.2843 25.2397 57.962 25.8444 58.3411L35.4621 64.1536C35.764 64.3432 36.1397 64.3432 36.4405 64.1536C36.7371 63.9721 36.9252 63.6292 36.9252 63.2622L36.9565 36.7895ZM113.346 50.5748C113.346 50.7591 113.253 50.9298 113.102 51.0209L107.541 54.4035C107.39 54.4951 107.204 54.4951 107.053 54.4035L101.492 51.0209C101.339 50.9294 101.248 50.7587 101.248 50.5748V43.7999C101.248 43.6152 101.339 43.445 101.488 43.3522L107.046 39.964C107.199 39.8712 107.386 39.8712 107.539 39.964L113.1 43.3522C113.253 43.445 113.344 43.6152 113.344 43.7999L113.346 50.5748ZM114.848 0.395739C114.545 0.217453 114.176 0.222293 113.876 0.40663C113.578 0.592176 113.394 0.931 113.394 1.29806V27.5166C113.394 27.7748 113.264 28.0127 113.052 28.1418C112.842 28.2709 112.58 28.2709 112.368 28.1418L108.313 25.6769C107.709 25.3082 106.965 25.3082 106.359 25.6769L90.165 35.5403C89.56 35.9073 89.1866 36.589 89.1866 37.3231V57.0556C89.1866 57.7938 89.56 58.4714 90.165 58.8425L106.359 68.7128C106.963 69.0798 107.708 69.0798 108.315 68.7128L124.508 58.8385C125.112 58.4674 125.487 57.7897 125.487 57.0516V7.87367C125.487 7.12503 125.101 6.43649 124.482 6.07064L114.848 0.395739ZM168.774 43.6216C169.376 43.253 169.746 42.5721 169.746 41.838V37.0557C169.746 36.32 169.375 35.6411 168.773 35.2708L152.682 25.4127C152.074 25.0416 151.329 25.0416 150.721 25.4127L134.531 35.2749C133.924 35.646 133.553 36.3236 133.553 37.0618V56.7862C133.553 57.5284 133.931 58.2141 134.539 58.5811L150.626 68.2578C151.218 68.6168 151.944 68.6208 152.544 68.2699L162.275 62.5623C162.581 62.3808 162.776 62.038 162.776 61.6669C162.776 61.2958 162.589 60.9489 162.283 60.7674L145.993 50.9011C145.688 50.7196 145.5 50.3768 145.5 50.0097V43.8221C145.5 43.4526 145.684 43.1122 145.99 42.9283L151.058 39.8425C151.36 39.657 151.73 39.657 152.032 39.8425L157.104 42.9283C157.406 43.1098 157.593 43.4526 157.593 43.8197V48.6842C157.593 49.0513 157.781 49.3942 158.082 49.5797C158.384 49.7612 158.759 49.7612 159.061 49.5757L168.774 43.6216Z" fill="#333333"/>
<path fill-rule="evenodd" clip-rule="evenodd" d="M151.465 42.6988C151.579 42.6274 151.723 42.6274 151.839 42.6988L154.947 44.5906C155.063 44.6616 155.134 44.7923 155.134 44.9334V48.721C155.134 48.8622 155.063 48.9929 154.947 49.0639L151.839 50.9556C151.723 51.027 151.579 51.027 151.465 50.9556L148.359 49.0639C148.241 48.9929 148.168 48.8622 148.168 48.721V44.9334C148.168 44.7923 148.237 44.6616 148.355 44.5906L151.465 42.6988Z" fill="#689F63"/>
<mask id="mask0_206_222" style="mask-type:luminance" maskUnits="userSpaceOnUse" x="45" y="25" width="37" height="44">
<path d="M62.1006 25.5111L45.9985 35.3197C45.3954 35.6867 45.0254 36.3644 45.0254 37.0969V56.7277C45.0254 57.4606 45.3954 58.1379 45.9985 58.5049L62.1017 68.3211C62.7037 68.687 63.4459 68.687 64.0471 68.3211L80.1477 58.5049C80.7478 58.1379 81.1185 57.4602 81.1185 56.7277V37.0969C81.1185 36.3644 80.7478 35.6867 80.1439 35.3197L64.0456 25.5111C63.7437 25.3284 63.4073 25.2368 63.071 25.2368C62.7347 25.2368 62.3983 25.3284 62.0964 25.5111" fill="white"/>
</mask>
<g mask="url(#mask0_206_222)">
<path d="M97.3905 33.6543L52.0175 10.1826L28.7529 60.2697L74.1248 83.7426L97.3905 33.6543Z" fill="url(#paint0_linear_206_222)"/>
</g>
<mask id="mask1_206_222" style="mask-type:luminance" maskUnits="userSpaceOnUse" x="45" y="25" width="36" height="44">
<path d="M45.4246 57.9741C45.5786 58.1851 45.7712 58.3678 45.9979 58.5049L59.8106 66.9251L62.1115 68.3208C62.4554 68.5305 62.8476 68.6192 63.2328 68.589C63.3613 68.5781 63.4897 68.5527 63.615 68.5152L80.5977 35.6976C80.4678 35.5484 80.3157 35.4233 80.1452 35.3185L69.6018 28.8929L64.0286 25.5087C63.8703 25.4119 63.6987 25.3433 63.5241 25.2949L45.4246 57.9741Z" fill="white"/>
</mask>
<g mask="url(#mask1_206_222)">
<path d="M25.8069 40.5964L57.8449 86.359L100.216 53.3213L68.1758 7.55981L25.8069 40.5964Z" fill="url(#paint1_linear_206_222)"/>
</g>
<mask id="mask2_206_222" style="mask-type:luminance" maskUnits="userSpaceOnUse" x="46" y="25" width="36" height="44">
<path d="M62.879 25.2481C62.6087 25.2764 62.3446 25.3651 62.1012 25.5111L46.0449 35.2915L63.3586 68.5729C63.5994 68.5366 63.8364 68.4519 64.0504 68.3212L80.1525 58.505C80.6494 58.2008 80.9896 57.6861 81.0928 57.1029L63.4427 25.2816C63.3128 25.2546 63.1828 25.2405 63.049 25.2405C62.9955 25.2405 62.942 25.2433 62.8885 25.2485" fill="white"/>
</mask>
<g mask="url(#mask2_206_222)">
<path d="M46.0447 25.2405V68.5737H81.086V25.2405H46.0447Z" fill="url(#paint2_linear_206_222)"/>
</g>
</g>
<defs>
<linearGradient id="paint0_linear_206_222" x1="74.6904" y1="21.8815" x2="49.339" y2="70.8849" gradientUnits="userSpaceOnUse">
<stop offset="0.3" stop-color="#3E863D"/>
<stop offset="0.5" stop-color="#55934F"/>
<stop offset="0.8" stop-color="#5AAD45"/>
</linearGradient>
<linearGradient id="paint1_linear_206_222" x1="42.0179" y1="63.74" x2="85.9764" y2="32.9639" gradientUnits="userSpaceOnUse">
<stop offset="0.57" stop-color="#3E863D"/>
<stop offset="0.72" stop-color="#619857"/>
<stop offset="1" stop-color="#76AC64"/>
</linearGradient>
<linearGradient id="paint2_linear_206_222" x1="46.0565" y1="46.9083" x2="81.0926" y2="46.9083" gradientUnits="userSpaceOnUse">
<stop offset="0.16" stop-color="#6BBF47"/>
<stop offset="0.38" stop-color="#79B461"/>
<stop offset="0.47" stop-color="#75AC64"/>
<stop offset="0.7" stop-color="#659E5A"/>
<stop offset="0.9" stop-color="#3E863D"/>
</linearGradient>
<clipPath id="clip0_206_222">
<rect width="169.075" height="109.283" fill="white" transform="translate(0.671631 0.265137)"/>
</clipPath>
</defs>
</svg>
