<svg width="113" height="126" viewBox="0 0 113 126" fill="none" xmlns="http://www.w3.org/2000/svg">
<path d="M56.4476 56.3662C60.9706 56.3662 64.6372 52.3035 64.6372 47.2919C64.6372 42.2803 60.9706 38.2175 56.4476 38.2175C51.9246 38.2175 48.2581 42.2803 48.2581 47.2919C48.2581 52.3035 51.9246 56.3662 56.4476 56.3662Z" fill="#61DAFB"/>
<path d="M56.4476 80.662C62.876 87.5898 69.2163 91.6879 74.3238 91.6879C75.9969 91.6879 77.582 91.2976 78.9029 90.4194C83.482 87.4922 85.1551 80.1742 83.57 69.7338C83.3058 67.8799 82.9536 66.026 82.5133 64.0745C84.2745 63.4891 85.8596 62.9036 87.4446 62.3182C96.3387 58.5128 101.27 53.2439 101.27 47.487C101.27 41.6326 96.3387 36.3636 87.4446 32.6558C85.8596 31.9728 84.2745 31.3873 82.5133 30.8995C82.9536 28.948 83.3058 27.0941 83.57 25.2402C85.067 14.6047 83.3939 7.18908 78.8148 4.26187C77.4939 3.3837 75.9088 2.99341 74.2357 2.99341C69.2163 2.99341 62.7879 7.0915 56.3596 14.0192C50.0193 7.0915 43.679 2.99341 38.5715 2.99341C36.8984 2.99341 35.3133 3.3837 33.9924 4.26187C29.4133 7.18908 27.7402 14.5071 29.3252 24.9475C29.5894 26.8014 29.9417 28.6553 30.382 30.6068C28.6208 31.1922 27.0357 31.7776 25.4506 32.3631C16.5566 36.1685 11.6252 41.4374 11.6252 47.1943C11.6252 53.0487 16.5566 58.3177 25.4506 62.0255C27.0357 62.7085 28.6208 63.2939 30.382 63.7818C29.9417 65.7333 29.5894 67.5872 29.3252 69.4411C27.8282 79.8815 29.5014 87.2971 33.9924 90.1267C35.3133 91.0049 36.8984 91.3951 38.5715 91.3951C43.679 91.5903 50.0193 87.4922 56.4476 80.662ZM51.5163 67.4896C53.1014 67.5872 54.7745 67.5872 56.4476 67.5872C58.1208 67.5872 59.7939 67.5872 61.379 67.4896C59.7939 69.8314 58.1208 71.978 56.4476 74.027C54.7745 71.978 53.1014 69.8314 51.5163 67.4896ZM40.5969 57.4395C41.4775 59.0983 42.27 60.6594 43.2387 62.2206C40.5088 61.8303 37.9551 61.3425 35.4894 60.757C36.282 58.1225 37.1626 55.3905 38.2193 52.6584C38.9238 54.2196 39.7163 55.8783 40.5969 57.4395ZM35.4894 33.9243C37.9551 33.3388 40.5088 32.851 43.2387 32.4607C42.3581 34.0218 41.4775 35.583 40.5969 37.2418C39.7163 38.9005 38.9238 40.4617 38.2193 42.1205C37.0745 39.2908 36.1939 36.5588 35.4894 33.9243ZM40.3327 47.2919C41.4775 44.6574 42.7103 42.0229 44.1193 39.3884C45.4402 36.8515 46.9372 34.3146 48.4342 31.7776C51.076 31.5825 53.7178 31.4849 56.4476 31.4849C59.2655 31.4849 61.9073 31.5825 64.4611 31.7776C66.0461 34.3146 67.4551 36.8515 68.776 39.3884C70.1849 42.0229 71.4178 44.6574 72.5626 47.2919C71.4178 49.9263 70.1849 52.5608 68.776 55.1953C67.4551 57.7322 65.9581 60.2692 64.4611 62.8061C61.8193 63.0012 59.1775 63.0988 56.4476 63.0988C53.6297 63.0988 50.9879 63.0012 48.4342 62.8061C46.8491 60.2692 45.4402 57.7322 44.1193 55.1953C42.7103 52.5608 41.4775 49.9263 40.3327 47.2919ZM74.7641 42.0229L72.3864 37.1442C71.5058 35.4854 70.7133 33.9243 69.7446 32.3631C72.4745 32.7534 75.0282 33.2412 77.4939 33.8267C76.7014 36.5588 75.8208 39.2908 74.7641 42.0229ZM74.7641 52.5608C75.8208 55.2929 76.7014 58.025 77.4939 60.6594C75.0282 61.2449 72.4745 61.7328 69.7446 62.1231C70.6252 60.5619 71.5058 59.0007 72.3864 57.3419C73.179 55.8783 73.9715 54.2196 74.7641 52.5608ZM76.7894 86.4189C76.0849 86.9068 75.2043 87.1019 74.2357 87.1019C69.9208 87.1019 64.5491 83.199 59.2655 77.3446C61.8193 74.3198 64.2849 70.9047 66.7506 67.0993C70.8894 66.709 74.8521 66.026 78.5506 65.0503C78.9909 66.8066 79.2551 68.5629 79.5193 70.3192C80.7521 78.613 79.7835 84.565 76.7894 86.4189ZM81.3685 34.9976C91.2312 38.1199 97.1312 42.901 97.1312 47.2919C97.1312 51.0972 93.0805 54.9026 85.9476 57.9274C84.5387 58.5128 82.9536 59.0983 81.3685 59.5861C80.2238 55.5856 78.8148 51.4875 77.0536 47.2919C78.8148 43.0962 80.3118 38.9981 81.3685 34.9976ZM74.3238 7.4818C75.2924 7.4818 76.0849 7.67694 76.8775 8.16481C79.7835 10.0187 80.8402 15.8731 79.6073 24.2645C79.3432 25.9232 78.9909 27.6795 78.6387 29.5334C74.9402 28.6553 70.9775 27.9723 66.8387 27.4844C64.4611 23.679 61.9073 20.2639 59.3536 17.2392C64.6372 11.4823 70.0088 7.4818 74.3238 7.4818ZM61.379 27.0941C59.7939 26.9965 58.1208 26.9965 56.4476 26.9965C54.7745 26.9965 53.1014 26.9965 51.5163 27.0941C53.1014 24.7523 54.7745 22.6057 56.4476 20.5567C58.1208 22.6057 59.7939 24.8499 61.379 27.0941ZM36.1058 8.16481C36.8103 7.67694 37.6909 7.4818 38.6596 7.4818C42.9745 7.4818 48.3461 11.3847 53.6297 17.2392C51.076 20.2639 48.6103 23.679 46.1446 27.4844C42.0058 27.8747 38.0432 28.5577 34.3446 29.5334C33.9044 27.7771 33.6402 26.0208 33.376 24.2645C32.1432 15.9707 33.1118 10.1163 36.1058 8.16481ZM31.5267 59.5861C21.6641 56.4638 15.764 51.6827 15.764 47.2919C15.764 43.4865 19.8148 39.6811 26.9476 36.6563C28.3566 36.0709 29.9417 35.4854 31.5267 34.9976C32.6715 38.9981 34.0805 43.0962 35.8417 47.2919C34.0805 51.4875 32.5835 55.6832 31.5267 59.5861ZM33.376 70.3192C33.6402 68.6605 33.9924 66.9042 34.3446 65.0503C38.0432 65.9284 42.0058 66.6114 46.1446 67.0993C48.5223 70.9047 51.076 74.3198 53.6297 77.3446C48.3461 83.1014 42.9745 87.1019 38.6596 87.1019C37.6909 87.1019 36.8984 86.9068 36.1058 86.4189C33.1118 84.565 32.1432 78.613 33.376 70.3192ZM29.6775 110.52C31.6148 107.885 31.7029 104.958 30.6461 102.031C29.5894 99.1035 27.3879 97.7374 24.6581 97.6399C21.3999 97.5423 18.0536 97.6399 14.7954 97.6399H14.179V122.911H16.8208V113.349H20.9596C21.4879 113.349 21.9282 113.544 22.1924 114.032L27.476 123.107C27.5641 123.302 27.8282 123.594 28.0043 123.594H31.4387C29.3252 119.984 27.2999 116.569 25.1864 113.057C27.0357 112.764 28.6208 112.081 29.6775 110.52ZM16.8208 110.324V100.665H17.7894C19.8148 100.665 21.9282 100.567 23.9536 100.762C26.3312 100.86 28.0043 102.909 28.0043 105.543C28.0043 108.178 26.067 110.227 23.6894 110.324C21.576 110.422 19.4626 110.324 16.8208 110.324ZM50.8999 111.593C49.4909 104.763 43.8551 103.006 39.5402 105.153C36.1939 106.812 34.6969 110.032 34.6088 114.032C34.5208 117.057 35.3133 119.789 37.4267 121.838C39.8044 124.18 42.7103 124.473 45.7043 123.887C47.3775 123.497 48.8745 122.619 50.0193 121.253C49.579 120.57 49.1387 119.887 48.6984 119.301C46.2327 121.643 43.5029 122.424 40.5088 120.862C38.5715 119.789 37.6029 117.155 37.4267 115.203H51.076V113.935C51.1641 113.057 51.076 112.276 50.8999 111.593ZM37.6029 113.154C37.3387 110.227 39.9805 107.105 42.8864 107.105C46.2327 107.007 48.3461 109.251 48.4342 113.154H37.6029ZM64.6372 104.665C63.3163 104.372 61.9073 104.275 60.5864 104.372C58.473 104.568 56.6238 105.641 55.1267 107.397C55.567 108.08 55.9193 108.763 56.4476 109.544C56.6238 109.349 56.7999 109.154 56.976 109.056C58.3849 107.592 60.0581 106.812 62.0835 107.007C63.6685 107.105 65.1655 107.69 65.6058 109.446C65.9581 110.812 65.87 112.276 65.9581 113.74C65.6939 113.74 65.6058 113.642 65.5178 113.544C63.4044 111.593 61.0267 111.203 58.473 111.886C56.0954 112.569 54.5984 114.618 54.4223 117.252C54.2461 120.277 55.479 122.521 57.8566 123.594C59.3536 124.277 61.0267 124.277 62.6118 123.887C63.8447 123.594 64.373 122.814 66.1342 121.741V123.009H68.5999C68.5999 119.106 68.6879 114.325 68.5999 109.837C68.5999 107.007 67.1029 105.251 64.6372 104.665ZM65.87 116.959C65.782 117.252 65.87 117.545 65.87 117.838C65.87 119.887 65.4297 120.57 63.6685 121.35C62.4357 121.838 61.1148 122.033 59.7939 121.545C58.2969 121.058 57.2402 119.594 57.2402 117.935C57.1521 116.276 58.1208 114.618 59.6178 114.13C61.6432 113.349 63.4924 113.837 65.1655 115.203C65.6939 115.691 66.0461 116.179 65.87 116.959ZM79.6073 107.3C81.8969 106.519 84.0103 107.007 85.5954 109.154L85.8596 109.349C86.476 108.763 87.0044 108.178 87.7088 107.495C87.4446 107.202 87.3566 107.007 87.1805 106.714C84.6267 103.689 79.6073 103.299 76.5253 105.738C72.2103 109.251 72.2984 116.081 74.4118 119.692C76.4372 123.107 79.3432 124.277 82.7775 123.79C84.8029 123.497 86.476 122.424 87.7969 120.57C87.1805 119.984 86.5641 119.399 85.9476 118.716C85.7715 118.911 85.6835 119.008 85.5954 119.204C83.2178 122.131 79.2551 121.838 77.1417 118.716C75.9088 116.862 75.6446 114.715 75.9969 112.569C76.173 110.129 77.3178 108.178 79.6073 107.3ZM97.9238 120.57C97.7476 120.667 97.6596 120.765 97.6596 120.765C96.9551 121.35 96.2506 121.448 95.4581 121.155C94.6656 120.765 94.5775 119.984 94.4894 119.204V108.08C94.4894 107.885 94.4894 108.275 94.5775 107.3H97.9238V104.372H94.4014V99.4938H91.7596V104.763H89.47C89.2939 104.763 89.0297 104.958 89.0297 105.153C88.9417 105.836 89.0297 106.324 89.0297 107.3H91.8476V119.789C91.8476 121.35 92.1999 122.716 93.4327 123.497C94.7536 124.375 97.3073 124.18 98.4521 123.107C98.6282 123.009 98.7163 122.619 98.7163 122.521C98.4521 121.936 98.1879 121.253 97.9238 120.57Z" fill="#61DAFB"/>
</svg>
