<svg width="217" height="63" viewBox="0 0 217 63" fill="none" xmlns="http://www.w3.org/2000/svg">
<g clip-path="url(#clip0_206_202)">
<path fill-rule="evenodd" clip-rule="evenodd" d="M32.0593 22.4161C33.1606 22.4333 34.1414 22.4815 34.7822 22.5432C37.5402 22.8087 40.1204 23.4139 42.2856 24.2432C45.5938 25.5104 48.6738 27.3866 51.5257 29.8718C53.9355 32.2429 55.5684 34.1825 56.4242 35.6905C56.9324 36.5861 57.8273 38.0076 58.5076 39.8679C58.6971 40.3858 58.9827 41.1356 59.2431 42.1273C59.3538 42.5488 59.514 43.279 59.7238 44.3179C59.8491 45.64 59.9157 46.5767 59.9236 47.128C59.94 48.2764 59.8245 49.225 59.7238 49.908C59.6134 50.6557 59.4418 51.5776 59.0663 52.613C58.9233 53.0072 58.6418 53.6352 58.2219 54.4972C57.0234 56.4143 55.7108 57.9286 54.2841 59.0399C52.8574 60.1513 51.034 61.0878 48.8141 61.8495C46.9182 62.5204 44.6014 62.712 41.8636 62.4245C40.6243 62.2943 39.197 61.9265 37.9608 61.5195C37.1431 61.2503 35.9801 60.7435 34.472 59.999L37.8338 57.0214C38.6773 57.4063 39.296 57.6668 39.6896 57.8029C40.7092 58.1552 41.6457 58.3389 42.2856 58.4642C42.8584 58.5763 43.5457 58.668 44.3575 58.7044C44.7711 58.723 45.4628 58.723 46.4328 58.7044C47.4042 58.5389 48.0886 58.3979 48.4859 58.2814C49.526 57.9763 50.2975 57.5697 50.8858 57.2217C51.4415 56.893 52.13 56.4391 52.8035 55.7641C53.1022 55.4647 53.5516 54.9232 54.1517 54.1393C54.9241 52.8924 55.4283 51.9854 55.6644 51.4182C56.0668 50.4514 56.216 49.4595 56.3206 48.7857C56.4439 47.9924 56.5753 46.9336 56.4242 45.6555C56.3641 45.1469 56.1766 44.3053 55.8618 43.1308C55.3578 41.4442 54.7878 40.0734 54.1517 39.0183C53.1976 37.4357 52.5105 36.4675 51.9034 35.6905C51.2268 34.8245 50.166 33.7206 48.8141 32.6024C48.2663 32.1493 47.3353 31.4602 46.0213 30.5353C44.7533 29.755 43.7785 29.2021 43.0967 28.8766C41.4636 28.0969 39.6372 27.4673 38.5712 27.1856C37.4877 26.8993 35.7033 26.5449 33.8541 26.4161C33.373 26.3826 32.5515 26.2781 31.7306 26.2882C31.4394 26.2918 31.0116 26.3215 30.4473 26.3773C29.8081 28.0403 28.3208 29.206 26.5882 29.206C24.2722 29.206 22.3948 27.1233 22.3948 24.5543C22.3948 21.9852 24.2722 19.9026 26.5882 19.9026C28.2091 19.9026 29.6152 20.9228 30.3132 22.4159C31.1037 22.4102 31.6858 22.4103 32.0593 22.4161Z" fill="#764ABC"/>
<path fill-rule="evenodd" clip-rule="evenodd" d="M40.6993 45.7693C40.135 46.8187 39.6067 47.7369 39.2381 48.3216C37.6511 50.8383 35.8879 53.0145 34.1571 54.6798C31.5127 57.2243 28.5067 59.2451 25.1392 60.7422C22.0819 61.8717 19.7503 62.4706 18.1444 62.5387C17.1908 62.5792 15.6329 62.7281 13.8397 62.4516C13.3405 62.3746 12.6119 62.2741 11.7072 62.0284C11.3226 61.924 10.6722 61.7128 9.75585 61.3948C8.6606 60.8542 7.8957 60.4499 7.46116 60.1818C6.55608 59.6233 5.87293 59.0381 5.38993 58.5998C4.8611 58.1199 4.22693 57.4941 3.60616 56.6157C3.3698 56.2812 3.02005 55.6968 2.55692 54.8623C1.65906 52.7525 1.13296 50.7344 0.978629 48.8081C0.824299 46.8818 1.00489 44.6619 1.5204 42.1484C1.94475 39.9917 2.95393 37.6702 4.54795 35.1838C5.26951 34.0583 6.27071 32.871 7.20693 31.887C7.82623 31.236 8.80377 30.3722 10.1396 29.2957L10.7836 34.014C10.061 34.6319 9.5481 35.096 9.24493 35.4061C8.45977 36.2095 7.84784 37.0172 7.42995 37.5693C7.05585 38.0636 6.6405 38.678 6.20592 39.4397C5.98456 39.8277 5.63854 40.4922 5.16786 41.4334C4.81123 42.4493 4.57905 43.1773 4.47132 43.6172C4.18934 44.7689 4.12105 45.7134 4.09852 46.4525C4.07724 47.1508 4.08738 48.0391 4.27771 49.0237C4.36211 49.4603 4.5603 50.1628 4.8723 51.1313C5.45982 52.4967 5.91603 53.4346 6.24093 53.945C6.79472 54.8149 7.49479 55.4542 7.96869 55.8917C8.52661 56.4067 9.28784 57.0623 10.3616 57.5562C10.7889 57.7528 11.54 57.9935 12.6148 58.2784C14.1841 58.6375 15.5399 58.7753 16.682 58.6917C18.3953 58.5665 19.4952 58.3904 20.4057 58.1957C21.4206 57.9787 22.8134 57.5116 24.3629 56.772C24.9908 56.4723 25.9946 55.9225 27.3742 55.1225C28.6179 54.2946 29.5374 53.6345 30.1326 53.1423C31.5584 51.9634 32.9638 50.5236 33.717 49.6404C34.4826 48.7426 35.6519 47.2056 36.6774 45.4935C36.9443 45.0481 37.4368 44.3112 37.8396 43.5175C37.9824 43.236 38.1732 42.8102 38.4118 42.2401C37.4328 40.7945 37.2663 38.783 38.1329 37.1184C39.2914 34.8936 41.8571 34.1313 43.8635 35.4158C45.87 36.7003 46.5575 39.5453 45.399 41.7701C44.5883 43.3273 43.0881 44.168 41.5728 44.092C41.1819 44.8543 40.8907 45.4134 40.6993 45.7693Z" fill="#764ABC"/>
<path fill-rule="evenodd" clip-rule="evenodd" d="M16.9119 41.0887C16.3914 40.0124 15.9538 39.0377 15.6918 38.3864C14.5637 35.583 13.7897 32.7873 13.3938 30.2855C12.7889 26.4629 12.775 22.5666 13.352 18.5963C14.0534 15.11 14.7912 12.5864 15.5655 11.0256C16.0254 10.0987 16.7125 8.54192 17.8497 6.98058C18.1663 6.54585 18.6191 5.90542 19.2749 5.17228C19.5537 4.86066 20.0519 4.3514 20.7695 3.6445C21.7514 2.88223 22.4578 2.36367 22.8888 2.08885C23.7866 1.51643 24.5907 1.16867 25.1782 0.935413C25.8214 0.680029 26.6318 0.399725 27.6304 0.262169C28.0106 0.209795 28.6424 0.178395 29.5259 0.167969C31.619 0.401159 33.4498 0.940307 35.0181 1.78541C36.5865 2.63052 38.2093 3.945 39.8866 5.72884C41.335 7.2424 42.6097 9.39646 43.7106 12.191C44.2089 13.456 44.611 15.0185 44.8895 16.4147C45.0737 17.3382 45.238 18.7117 45.3822 20.5351L41.4036 18.7178C41.2981 17.7131 41.2036 16.9869 41.12 16.5392C40.9034 15.3796 40.5942 14.3823 40.3826 13.7011C40.1933 13.0912 39.9323 12.3802 39.5673 11.5752C39.3815 11.1651 39.046 10.4942 38.5609 9.56247C37.9593 8.70057 37.5162 8.10519 37.2317 7.77633C36.4867 6.91549 35.7919 6.36434 35.2322 5.9624C34.7034 5.5827 34.0116 5.13496 33.1526 4.8089C32.7717 4.66432 32.1266 4.49094 31.2174 4.28875C29.8595 4.14399 28.8996 4.09456 28.3378 4.14047C27.3802 4.21873 26.5256 4.55475 25.9434 4.77978C25.258 5.04471 24.3593 5.43042 23.4245 6.19633C23.0526 6.50111 22.4797 7.09076 21.7061 7.96529C20.6204 9.27143 19.8157 10.4886 19.292 11.6168C18.5066 13.3091 18.0763 14.4448 17.7578 15.41C17.4029 16.486 17.0468 18.0498 16.8205 19.9028C16.7288 20.6537 16.6368 21.8904 16.5446 23.6131C16.5441 25.221 16.5808 26.4344 16.6547 27.2533C16.8317 29.215 17.2208 31.2915 17.5156 32.4618C17.8153 33.6515 18.4011 35.5537 19.1962 37.4096C19.4031 37.8924 19.7191 38.7397 20.1251 39.531C20.2692 39.8117 20.5 40.2122 20.8177 40.7324C22.4392 40.5465 24.0798 41.4239 24.92 43.1043C26.0431 45.3504 25.3111 48.1805 23.285 49.4256C21.2589 50.6706 18.7059 49.8591 17.5828 47.613C16.7968 46.0409 16.9195 44.1828 17.7585 42.7823C17.3707 42.0184 17.0885 41.4538 16.9119 41.0887Z" fill="#764ABC"/>
<path fill-rule="evenodd" clip-rule="evenodd" d="M90.748 13.9058H103.398C104.471 13.9602 105.258 14.0299 105.761 14.1148C106.264 14.1998 106.983 14.3846 107.918 14.6693C109.287 15.1966 110.288 15.67 110.921 16.0895C111.554 16.5091 112.365 17.237 113.354 18.2733C114.145 19.5347 114.659 20.5781 114.897 21.4035C115.135 22.229 115.291 23.5088 115.366 25.2432C115.244 26.993 115.034 28.2932 114.736 29.1436C114.439 29.9941 113.78 31.1745 112.762 32.6851C112.083 33.4447 111.53 33.9805 111.1 34.2926C110.671 34.6046 109.87 35.0721 108.698 35.6952C109.14 36.0224 109.456 36.2699 109.646 36.4378C109.836 36.6056 110.087 36.8591 110.4 37.1982L111.319 38.4462L118.407 51.3457H110.921C110.309 51.3077 109.884 51.2247 109.646 51.0967C109.407 50.9688 109.091 50.6539 108.698 50.1522L102.844 38.9186C102.486 38.3379 102.215 37.9763 102.033 37.8338C101.851 37.6914 101.532 37.5932 101.078 37.5393H98.5392V51.3457H90.748V13.9058ZM98.5585 20.3843V31.5212H102.226C105.82 31.1949 107.622 29.3003 107.634 25.8372C107.646 22.3742 105.843 20.5565 102.226 20.3843H98.5585Z" fill="black"/>
<path fill-rule="evenodd" clip-rule="evenodd" d="M128.486 24.2739C132.184 24.2739 135.044 25.6796 137.066 28.4909C139.088 31.3022 139.792 34.6843 139.177 38.6371C139.033 39.036 138.854 39.2791 138.64 39.3665C138.427 39.4539 137.902 39.4985 137.066 39.5004H123.927C124.14 42.687 125.289 44.6974 127.371 45.5316C129.216 46.2704 131.416 45.8634 134.066 44.3886C134.294 44.2618 134.657 44.0662 135.157 43.8018C135.584 43.6906 135.907 43.65 136.125 43.6799C136.344 43.7098 136.621 43.8326 136.958 44.0483L139.177 47.2287C138.016 48.9582 136.312 50.2171 134.066 51.0053C131.819 51.7936 129.531 52.0362 127.2 51.7332C123.867 51.248 121.277 49.7464 119.428 47.2287C117.579 44.7109 116.635 41.5276 116.597 37.6788C116.542 34.2086 117.529 31.1459 119.558 28.4909C121.586 25.8358 124.562 24.4302 128.486 24.2739ZM123.983 34.8148H132.895C132.895 33.2445 132.505 31.9965 131.724 31.071C130.944 30.1455 129.849 29.7221 128.439 29.8008C126.991 29.8926 125.932 30.395 125.26 31.3078C124.589 32.2206 124.163 33.3896 123.983 34.8148Z" fill="black"/>
<path fill-rule="evenodd" clip-rule="evenodd" d="M156.764 12.8611H163.957V51.3434H159.067C158.513 51.2437 158.141 51.0349 157.95 50.717C157.76 50.399 157.488 49.5323 157.134 48.1168C155.051 50.5607 152.649 51.8009 149.927 51.8375C147.206 51.8742 144.99 50.6339 143.28 48.1168C141.646 45.5129 140.851 42.0885 140.894 37.8437C140.937 33.5988 141.985 30.2495 144.038 27.7955C145.385 25.9434 147.348 24.7707 149.927 24.2774C152.506 23.7841 154.785 24.4943 156.764 26.4081V12.8611ZM156.682 31.8498C156.075 31.0973 155.504 30.6097 154.969 30.3868C154.434 30.164 153.594 30.0638 152.449 30.0861C150.259 30.4108 148.975 32.0585 148.597 35.0292C148.42 36.4216 148.307 37.7579 148.391 39.5583C148.429 40.3743 148.625 41.5635 148.98 43.1258C149.436 44.8549 150.592 45.7122 152.449 45.6974C154.307 45.6827 155.717 44.8255 156.682 43.1258V31.8498Z" fill="black"/>
<path fill-rule="evenodd" clip-rule="evenodd" d="M189.569 24.7078V51.4169H184.669C184.133 51.2345 183.772 50.9928 183.586 50.6917C183.401 50.3906 183.177 49.6829 182.914 48.5685C180.909 50.7334 178.577 51.8217 175.918 51.8332C173.258 51.8447 171.108 50.7565 169.466 48.5685C168.655 47.0686 168.154 45.857 167.965 44.9337C167.776 44.0104 167.679 42.3097 167.675 39.8315V24.7078H174.937V42.038C175.025 44.077 175.793 45.3127 177.239 45.745C178.685 46.1773 180.379 45.5104 182.321 43.7445V24.7078H189.569Z" fill="black"/>
<path fill-rule="evenodd" clip-rule="evenodd" d="M191.269 24.6851H198.762C199.16 24.8483 199.425 24.9962 199.557 25.1289C199.689 25.2615 199.856 25.5249 200.057 25.919L204.219 33.5515L208.252 25.5111C208.498 25.1946 208.703 24.9859 208.868 24.8848C209.033 24.7837 209.278 24.7171 209.602 24.6851H216.362L208.57 37.2136L216.647 51.3787H209.292C208.849 51.2755 208.522 51.1247 208.312 50.9266C208.102 50.7284 207.819 50.3036 207.463 49.6522L203.405 41.9361L199.236 49.9551C198.901 50.5007 198.639 50.8562 198.452 51.0216C198.264 51.1869 197.986 51.306 197.618 51.3787H190.889L198.948 37.6514L191.184 24.6851H191.269Z" fill="black"/>
</g>
<defs>
<clipPath id="clip0_206_202">
<rect width="215.746" height="62.4471" fill="white" transform="translate(0.925293 0.167969)"/>
</clipPath>
</defs>
</svg>
