<svg width="161" height="60" viewBox="0 0 161 60" fill="none" xmlns="http://www.w3.org/2000/svg">
<path d="M140.304 24.1938C139.959 24.1938 139.624 24.2651 139.327 24.433L129.936 29.8564C129.328 30.2064 128.958 30.8679 128.958 31.5713V42.3987C128.958 43.1018 129.328 43.7622 129.936 44.1133L132.388 45.5267C133.58 46.1142 134.019 46.1048 134.562 46.1048C136.326 46.1048 137.333 45.0342 137.333 43.1736V32.4916C137.333 32.3406 137.202 32.2325 137.054 32.2325H135.878C135.727 32.2325 135.599 32.3434 135.599 32.4916V43.1791C135.599 44.0039 134.739 44.8336 133.345 44.1363L130.796 42.6409C130.706 42.5919 130.636 42.5024 130.636 42.4018V31.5743C130.636 31.4718 130.705 31.3671 130.796 31.3152L140.168 25.9112C140.255 25.8608 140.36 25.8608 140.447 25.9112L149.818 31.3152C149.908 31.3687 149.978 31.4685 149.978 31.5743V42.4018C149.978 42.5051 149.926 42.611 149.838 42.6609L140.447 48.0649C140.364 48.1129 140.253 48.1129 140.168 48.0649L137.755 46.6294C137.683 46.5873 137.585 46.5906 137.516 46.6294C136.85 47.0068 136.725 47.0506 136.1 47.2673C135.947 47.3208 135.712 47.4042 136.18 47.6664L139.331 49.5232C139.63 49.6966 139.965 49.7823 140.308 49.7823C140.656 49.7823 140.985 49.6991 141.285 49.5232L150.676 44.1191C151.284 43.7655 151.653 43.1076 151.653 42.4045V31.5771C151.653 30.8738 151.284 30.2136 150.676 29.8622L141.285 24.4388C140.991 24.2709 140.653 24.1997 140.308 24.1997L140.304 24.1938ZM142.817 31.9307C140.142 31.9307 138.55 33.0689 138.55 34.9614C138.55 37.0122 140.13 37.5786 142.697 37.8325C145.768 38.1332 146.007 38.584 146.007 39.1885C146.007 40.2368 145.171 40.6839 143.196 40.6839C140.714 40.6839 140.168 40.0642 139.985 38.8271C139.964 38.6946 139.862 38.5879 139.726 38.5879H138.507C138.433 38.5896 138.363 38.6195 138.311 38.6715C138.259 38.7235 138.23 38.7935 138.228 38.867C138.228 40.4475 139.088 42.3164 143.193 42.3164C146.165 42.3164 147.879 41.1525 147.879 39.1062C147.879 37.0831 146.494 36.5363 143.612 36.1547C140.702 35.7668 140.421 35.5811 140.421 34.8985C140.421 34.3354 140.657 33.5821 142.814 33.5821C144.741 33.5821 145.453 33.9978 145.745 35.297C145.771 35.419 145.878 35.5187 146.004 35.5187H147.224C147.299 35.5187 147.371 35.4727 147.423 35.419C147.474 35.3616 147.51 35.297 147.503 35.2194C147.315 32.9819 145.823 31.9293 142.817 31.9293L142.817 31.9307Z" fill="#83CD29"/>
<path d="M85.0917 10.0001C84.9868 10.0003 84.8837 10.0278 84.7927 10.0799C84.7021 10.1329 84.6269 10.2086 84.5744 10.2996C84.522 10.3905 84.4942 10.4935 84.4937 10.5984V25.8522C84.4937 26.0018 84.4238 26.136 84.2941 26.2111C84.2306 26.2481 84.1583 26.2676 84.0848 26.2676C84.0112 26.2676 83.9389 26.2481 83.8754 26.2111L81.3829 24.7755C81.2011 24.6703 80.9948 24.6149 80.7847 24.6149C80.5747 24.6149 80.3683 24.6703 80.1865 24.7755L70.237 30.5179C69.8651 30.7324 69.6384 31.1453 69.6384 31.5746V43.0597C69.6381 43.2698 69.6933 43.4764 69.7984 43.6584C69.9034 43.8404 70.0546 43.9915 70.2368 44.0964L80.1865 49.8391C80.3682 49.9445 80.5746 50.0001 80.7847 50.0001C80.9948 50.0001 81.2012 49.9445 81.3829 49.8391L91.3326 44.0964C91.5148 43.9915 91.666 43.8404 91.7711 43.6584C91.8761 43.4764 91.9313 43.2698 91.931 43.0597V14.4267C91.931 13.9911 91.6932 13.5823 91.313 13.37L85.391 10.0597C85.2979 10.0079 85.1948 9.99901 85.0917 10.0001ZM21.086 24.3366C20.8962 24.3443 20.718 24.3773 20.5475 24.4762L10.598 30.2186C10.4158 30.3233 10.2645 30.4744 10.1594 30.6565C10.0544 30.8385 9.9994 31.0452 10 31.2554L10.0202 46.669C10.0202 46.8835 10.1311 47.0825 10.3195 47.1872C10.5044 47.2981 10.7336 47.2981 10.9176 47.1872L16.8196 43.7974C17.1937 43.5757 17.4376 43.1888 17.4376 42.7609V35.5625C17.4376 35.1329 17.6635 34.7394 18.0362 34.526L20.5486 33.0706C20.7302 32.965 20.9367 32.9099 21.1467 32.9109C21.3568 32.9097 21.5634 32.9648 21.745 33.0706L24.2564 34.5252C24.6285 34.7386 24.8544 35.1327 24.8544 35.5617V42.7598C24.8544 43.1883 25.1038 43.5773 25.4724 43.7963L31.3744 47.1861C31.5601 47.297 31.7887 47.297 31.9725 47.1861C32.1554 47.0808 32.2718 46.8821 32.2718 46.6679L32.2917 31.2548C32.2929 31.0445 32.2381 30.8376 32.133 30.6555C32.028 30.4733 31.8763 30.3223 31.6937 30.2181L21.7442 24.476C21.576 24.3773 21.3969 24.344 21.2057 24.3363H21.0865L21.086 24.3366ZM110.494 24.4762C110.284 24.4757 110.078 24.5307 109.896 24.6359L99.9464 30.3785C99.575 30.5933 99.3478 30.986 99.3478 31.415V42.9C99.3478 43.3318 99.5911 43.7231 99.9658 43.9365L109.836 49.5622C110.2 49.7701 110.645 49.7859 111.012 49.5816L116.994 46.2516C117.184 46.1463 117.312 45.9496 117.313 45.7334C117.313 45.5172 117.201 45.3227 117.013 45.2152L107.003 39.4725C106.816 39.3655 106.685 39.1491 106.685 38.934V35.3427C106.685 35.1282 106.818 34.9315 107.003 34.8245L110.114 33.0298C110.299 32.9228 110.526 32.9228 110.713 33.0298L113.824 34.8245C113.916 34.8768 113.991 34.9524 114.044 35.0434C114.096 35.1344 114.124 35.2377 114.123 35.3427V38.1742C114.123 38.2792 114.151 38.3825 114.203 38.4735C114.256 38.5645 114.331 38.64 114.422 38.6924C114.609 38.7999 114.835 38.8005 115.021 38.6924L120.983 35.2236C121.353 35.0085 121.581 34.6147 121.581 34.1871V31.4158C121.581 31.2057 121.526 30.9993 121.421 30.8173C121.316 30.6353 121.165 30.4842 120.983 30.3791L111.093 24.6364C110.911 24.5312 110.705 24.4761 110.495 24.4768L110.494 24.4762ZM80.7447 33.0506C80.8003 33.0504 80.8552 33.064 80.9043 33.0902L84.3138 35.0642C84.4064 35.1177 84.4734 35.2166 84.4734 35.3233V39.2713C84.4734 39.3786 84.4069 39.4772 84.3138 39.5304L80.9043 41.5044C80.8114 41.5571 80.6981 41.5571 80.605 41.5044L77.1955 39.5304C77.1026 39.4769 77.0358 39.378 77.0358 39.2713V35.3228C77.0358 35.2158 77.1029 35.1177 77.1955 35.0637L80.605 33.09C80.6516 33.0631 80.6926 33.0506 80.7447 33.0506Z" fill="#404137"/>
<path d="M50.9755 24.4161C50.7654 24.4157 50.5589 24.4708 50.3769 24.5757L40.4272 30.2984C40.0552 30.5129 39.8291 30.9261 39.8291 31.3551V42.8402C39.8285 43.0503 39.8836 43.2569 39.9886 43.4389C40.0936 43.6209 40.2449 43.7719 40.4272 43.8766L50.3769 49.6193C50.5586 49.7247 50.765 49.7803 50.9751 49.7803C51.1852 49.7803 51.3916 49.7247 51.5733 49.6193L61.523 43.8766C61.7052 43.7717 61.8564 43.6206 61.9614 43.4386C62.0665 43.2566 62.1217 43.05 62.1214 42.8399V31.3548C62.1214 30.9253 61.8952 30.5123 61.5228 30.2981L51.573 24.5754C51.3912 24.47 51.1846 24.4149 50.9744 24.4158L50.9755 24.4161ZM110.475 34.6651C110.435 34.6651 110.391 34.6651 110.355 34.6845L108.441 35.8014C108.406 35.8212 108.376 35.85 108.355 35.885C108.334 35.9199 108.322 35.9598 108.322 36.0006V38.1941C108.322 38.2767 108.369 38.352 108.441 38.3936L110.355 39.4902C110.388 39.5106 110.426 39.5214 110.465 39.5214C110.504 39.5214 110.541 39.5106 110.574 39.4902L112.488 38.3936C112.559 38.3529 112.608 38.2767 112.608 38.1941V36.0006C112.608 35.918 112.56 35.8426 112.488 35.8011L110.574 34.6842C110.539 34.6632 110.514 34.6648 110.475 34.6648L110.475 34.6651Z" fill="#83CD29"/>
</svg>
